<svg id="Layer_1" data-name="Layer 1" xmlns="http://www.w3.org/2000/svg" viewBox="0 0 512 512"><title>windows-shopper-flat</title><path d="M500.59,0H256C115,0,0,110.06,0,251V495.71C0,501.59,5.42,512,11.3,512H256c141,0,256-119.95,256-261V6.39C512,.53,506.47,0,500.59,0Z" fill="#2a2a2a"/><g id="g18086"><g id="bag"><g id="handles"><path id="path205" d="M247.66,124.34c-14,4.84-24.2,9-24.2,35.26v12.66l8.37-1.66V159.68c-.21-17.83,4.5-21.56,16.72-26.76a42.44,42.44,0,0,0-.89-8.57Z" fill="#fff"/><path id="path207" d="M272,118.72a73.89,73.89,0,0,1,1.3,8.29c21.89-3.1,21.47,5.79,21.47,24.35v6.86l8.29-1.67v-5.19C303.07,122.54,298.49,114.82,272,118.72Z" fill="#fff"/><path id="path209" d="M185.74,179.69V141.78c-.27-23.48,12.06-30.67,34.8-35.92C254.8,97.94,257,119.69,257,133.52v32.14l8.39-1.67V134.23C265.28,108,257,88.44,218.86,97c-20.54,4.59-41.5,9.74-41.5,44v40.33l8.37-1.64Z" fill="#fff"/></g><path id="path211" d="M345,158.28,114.5,203.65v165L345,414.06l46.07-16.5V174.78L345,158.28ZM215.2,334.55l-51.15-7.1V285.66H215.2Zm0-55.24H164.06V240.87l51.15-7.11Zm70.9,64.91-64.48-9.28V285.66H286.1Zm0-64.91H221.62V233.39l64.48-9.29Z" fill="#fff"/></g></g></svg>