<svg id="Layer_1" data-name="Layer 1" xmlns="http://www.w3.org/2000/svg" viewBox="0 0 512 512"><title>windows</title><path d="M512,10.67A10.7,10.7,0,0,0,501.33,0H256C114.62,0,0,114.6,0,256S114.62,512,256,512,512,397.38,512,256Z" fill="#a7aaad"/><polygon points="96 369.67 225.13 388.35 225.13 264.83 96 264.83 96 369.67" fill="#fff"/><polygon points="242.77 390.92 416 416 416 264.83 242.77 264.83 242.77 390.92" fill="#fff"/><polygon points="242.77 247.19 416 247.19 416 96 242.77 121.08 242.77 247.19" fill="#fff"/><polygon points="225.13 123.65 96 142.35 96 247.19 225.13 247.19 225.13 123.65" fill="#fff"/></svg>