<?xml version="1.0" standalone="no"?>
<!DOCTYPE svg PUBLIC "-//W3C//DTD SVG 20010904//EN"
 "http://www.w3.org/TR/2001/REC-SVG-20010904/DTD/svg10.dtd">
<svg version="1.0" xmlns="http://www.w3.org/2000/svg"
 width="500.000000pt" height="500.000000pt" viewBox="0 0 500.000000 500.000000"
 preserveAspectRatio="xMidYMid meet">

<g transform="translate(0.000000,500.000000) scale(0.100000,-0.100000)"
fill="#000000" stroke="none">
<path d="M2150 3249 c-69 -13 -164 -65 -205 -110 -21 -23 -48 -65 -61 -94 -26
-57 -43 -178 -27 -188 6 -4 12 17 16 51 14 160 154 284 339 299 74 6 166 -8
233 -37 73 -31 176 -139 204 -213 l10 -24 -172 -28 c-95 -15 -212 -33 -261
-39 -59 -8 -91 -16 -94 -25 -3 -10 2 -12 20 -8 13 4 41 2 62 -4 52 -14 76 -56
76 -136 l0 -63 70 0 70 0 0 99 0 99 28 6 c107 22 216 36 223 29 11 -11 29
-127 29 -186 l0 -48 63 3 62 3 -3 70 c-2 39 -7 87 -12 108 -9 42 -5 44 45 23
53 -23 130 -101 154 -156 l22 -50 79 0 79 0 -16 46 c-43 127 -191 236 -341
251 -53 6 -54 7 -93 69 -52 82 -148 170 -225 206 -110 51 -257 70 -374 47z"/>
<path d="M1755 3166 c-65 -43 -153 -138 -188 -203 -36 -68 -67 -191 -67 -270
l0 -63 65 0 65 0 0 85 c0 175 57 344 144 429 69 67 61 76 -19 22z"/>
<path d="M1675 2540 c-25 -28 -7 -70 30 -70 32 0 49 36 30 65 -17 28 -38 29
-60 5z m52 -16 c7 -19 -20 -49 -36 -40 -12 8 -15 39 -4 49 12 12 33 7 40 -9z"/>
<path d="M1851 2513 c1 -27 3 -41 6 -31 2 9 15 19 29 22 31 8 32 41 2 50 -37
9 -38 8 -37 -41z m49 18 c0 -11 -26 -22 -34 -14 -12 12 -5 23 14 23 11 0 20
-4 20 -9z"/>
<path d="M2010 2550 c0 -5 5 -10 10 -10 6 0 10 -16 10 -35 0 -19 5 -35 10 -35
6 0 10 16 10 35 0 25 4 35 16 35 8 0 12 5 9 10 -3 6 -19 10 -36 10 -16 0 -29
-4 -29 -10z"/>
<path d="M2183 2515 c0 -27 2 -38 4 -22 2 15 2 37 0 50 -2 12 -4 0 -4 -28z"/>
<path d="M2371 2533 c-16 -40 -24 -41 -39 -8 -17 37 -32 30 -32 -15 0 -41 19
-58 21 -17 l0 22 11 -22 c6 -13 14 -23 18 -23 4 0 12 10 18 23 l11 22 0 -22
c1 -13 6 -23 11 -23 11 0 11 18 1 65 l-6 30 -14 -32z"/>
<path d="M2513 2515 c0 -27 2 -38 4 -22 2 15 2 37 0 50 -2 12 -4 0 -4 -28z"/>
<path d="M2643 2553 c-18 -7 -16 -43 1 -43 17 0 31 -18 22 -27 -3 -3 -12 0
-21 7 -12 10 -15 10 -15 -4 0 -10 9 -16 24 -16 35 0 39 26 8 50 -26 21 -26 21
-4 17 14 -4 22 -1 19 6 -4 13 -18 17 -34 10z"/>
<path d="M2785 2550 c-3 -5 1 -10 9 -10 10 0 16 -13 19 -37 l4 -38 1 38 c1 25
7 37 17 37 8 0 15 5 15 10 0 6 -13 10 -29 10 -17 0 -33 -4 -36 -10z"/>
<path d="M3089 2542 c-21 -17 -22 -23 -11 -46 12 -27 54 -37 68 -15 3 6 -1 10
-12 9 -38 -4 -45 0 -42 23 2 16 9 22 26 21 12 0 21 4 19 10 -6 18 -23 17 -48
-2z"/>
<path d="M2950 2510 c0 -22 5 -40 10 -40 6 0 10 18 10 40 0 22 -4 40 -10 40
-5 0 -10 -18 -10 -40z"/>
<path d="M1580 2364 c0 -4 16 -28 35 -55 69 -92 182 -171 310 -215 68 -23 101
-28 223 -32 l142 -5 0 -254 c0 -275 -2 -290 -56 -332 -15 -12 -44 -24 -66 -27
-92 -15 -21 -24 192 -24 147 0 230 4 230 10 0 6 -12 10 -26 10 -40 0 -101 39
-119 76 -12 26 -15 80 -15 306 l0 274 56 27 56 28 35 -37 c61 -62 111 -79 238
-79 99 0 116 3 167 27 103 48 198 169 215 271 l6 37 -76 0 -75 0 -18 -57 c-49
-156 -198 -243 -345 -200 -31 9 -67 26 -81 37 l-26 20 78 77 c42 43 82 88 89
101 12 22 11 22 -51 21 l-63 0 -42 -60 c-24 -32 -50 -59 -58 -59 -8 0 -15 -6
-15 -13 0 -7 -19 -25 -42 -40 l-43 -28 -3 101 -3 100 -69 0 -70 0 0 -124 c0
-104 -3 -125 -16 -130 -35 -13 -201 -6 -265 12 -111 31 -218 107 -284 202 -27
39 -29 40 -86 40 -33 0 -59 -3 -59 -6z"/>
</g>
</svg>
