<?xml version="1.0" encoding="utf-8"?><!-- Uploaded to: SVG Repo, www.svgrepo.com, Generator: SVG Repo Mixer Tools -->
<svg fill="#000000" width="800px" height="800px" viewBox="0 0 24 24" id="idea-lamp" data-name="Flat Line" xmlns="http://www.w3.org/2000/svg" class="icon flat-line"><path id="secondary" d="M11.27,3A6,6,0,0,0,7.74,13.22,4.13,4.13,0,0,1,9,16.12.49.49,0,0,0,9,16h6a.49.49,0,0,0,0,.12h0a4,4,0,0,1,1.19-2.83A6,6,0,0,0,11.27,3Z" style="fill: rgb(44, 169, 188); stroke-width: 2;"></path><path id="primary" d="M16.19,13.29A4,4,0,0,0,15,16.12V19a1,1,0,0,1-1,1H10a1,1,0,0,1-1-1V16.13a4.13,4.13,0,0,0-1.26-2.91,6,6,0,1,1,8.45.07ZM9,16a.57.57,0,0,1,0,.13V19a1,1,0,0,0,1,1h4a1,1,0,0,0,1-1V16.12A.49.49,0,0,1,15,16Zm4,4H11v1h2Z" style="fill: none; stroke: rgb(0, 0, 0); stroke-linecap: round; stroke-linejoin: round; stroke-width: 2;"></path></svg>